#!OML:ASF E:\VariousWalksJay\Project 1\Capture day 1\Session 1\Actor2.ASF
:FULLY-SPECIFIED
:DEGREES
1159
root -5.99927 12.6245 11.6535 212.546 69.3076 -189.814
lowerback 48.5965 -6.01068 1.68606
upperback 14.9792 -3.90258 -9.87716
thorax -4.67319 0.00382241 -10.0373
lowerneck -1.56731 4.50346 5.31422
upperneck -23.4095 6.40366 -6.39862
head -6.45936 3.84081 -3.34221
rclavicle -1.72446e-014 1.10822e-014
rhumerus 58.1635 4.75808 -50.4414
rradius 15.1956
rwrist 21.07
rhand -10.6821 -9.22495
rfingers 7.12502
rthumb 15.3267 -38.637
lclavicle -1.72446e-014 1.10822e-014
lhumerus 58.5818 1.43761 87.0922
lradius 26.0925
lwrist -4.68968
lhand -1.58451 99.0146
lfingers 7.12502
lthumb 24.0718 -70.5045
rfemur -76.1518 -32.6819 -8.24647
rtibia 61.655
rfoot -7.91544 -7.85268
rtoes -22.9366
lfemur -92.3714 41.1876 -20.6544
ltibia 72.3327
lfoot -7.53428 9.07071
ltoes -24.7537
1160
root -6.10701 12.6662 11.2457 210.824 69.6988 -191.944
lowerback 46.4779 -5.93478 1.75283
upperback 15.9349 -3.83924 -9.80262
thorax -4.37171 -0.0509007 -10.0233
lowerneck -1.43204 4.38962 4.86959
upperneck -22.9873 6.03429 -7.1344
head -6.34708 3.72595 -3.4745
rclavicle 3.76697e-014 1.2538e-013
rhumerus 57.0841 1.53277 -53.0657
rradius 14.3104
rwrist 23.1923
rhand -1.01987 -11.1704
rfingers 7.12502
rthumb 24.6132 -39.6079
lclavicle 3.76697e-014 1.2538e-013
lhumerus 57.1084 -0.621377 87.2749
lradius 27.9094
lwrist -6.6062
lhand -2.55607 100.66
lfingers 7.12502
lthumb 23.14 -72.0301
rfemur -72.1967 -31.8254 -12.3564
rtibia 57.4397
rfoot -6.8592 -10.3338
rtoes -21.8868
lfemur -94.8835 40.7124 -24.5787
ltibia 74.8163
lfoot -9.63105 8.77454
ltoes -25.0542
1161
root -6.2112 12.7394 10.8278 210.127 70.4676 -192.538
lowerback 45.9528 -5.57315 1.73382
upperback 15.8848 -3.48014 -9.63375
thorax -4.21842 0.0833356 -9.97978
lowerneck -1.36984 4.29289 4.63818
upperneck -22.2769 5.70554 -7.85765
head -6.12446 3.59951 -3.62453
rclavicle 5.81445e-015 2.7308e-014
rhumerus 55.8843 -0.00705107 -52.1591
rradius 14.1949
rwrist 21.6515
rhand 7.79652 -14.0642
rfingers 7.12502
rthumb 33.0335 -41.0574
lclavicle 5.81445e-015 2.7308e-014
lhumerus 56.4198 -3.76357 85.4762
lradius 28.4583
lwrist 3.23263
lhand 1.86121 102.222
lfingers 7.12502
lthumb 27.3719 -74.19
rfemur -68.0402 -29.794 -16.1699
rtibia 53.0132
rfoot -6.71926 -13.346
rtoes -16.4764
lfemur -96.4323 40.816 -27.6676
ltibia 77.0432
lfoot -11.7577 8.48947
ltoes -24.8326
1162
root -6.30929 12.819 10.4171 210.637 71.2019 -191.839
lowerback 45.1937 -4.92238 1.84563
upperback 15.9753 -2.68619 -9.17927
thorax -3.75061 0.420475 -9.86405
lowerneck -1.25925 4.09637 4.65137
upperneck -21.5701 5.30223 -8.38898
head -5.92091 3.3996 -3.75432
rclavicle -1.88845e-014 1.86858e-014
rhumerus 54.2047 -0.473133 -48.6603
rradius 14.3452
rwrist 20.1082
rhand 15.0942 -16.4505
rfingers 7.12502
rthumb 39.9403 -41.6946
lclavicle -1.88845e-014 1.86858e-014
lhumerus 56.6307 -7.38185 82.7138
lradius 27.9063
lwrist 15.2865
lhand 5.22042 103.092
lfingers 7.12502
lthumb 30.5802 -75.6117
rfemur -64.1258 -26.9687 -19.5858
rtibia 48.7466
rfoot -7.88734 -17.0668
rtoes -8.41032
lfemur -97.737 41.1434 -30.18
ltibia 78.9999
lfoot -13.7301 8.02808
ltoes -24.4206
1163
root -6.40032 12.8984 10.016 211.794 71.6302 -190.432
lowerback 44.3627 -4.56598 2.43032
upperback 16.1234 -2.05566 -8.8291
thorax -3.26126 0.712122 -10.0368
lowerneck -1.12971 3.96374 4.41123
upperneck -20.8843 5.12854 -8.14068
head -5.75345 3.27512 -3.60407
rclavicle -2.5842e-014 -5.16343e-014
rhumerus 52.5142 -1.02584 -46.0326
rradius 14.7531
rwrist 21.6633
rhand 22.4892 -18.0553
rfingers 7.12502
rthumb 46.8465 -40.7888
lclavicle -2.5842e-014 -5.16343e-014
lhumerus 57.4383 -11.384 77.0795
lradius 27.3223
lwrist 25.618
lhand 5.86823 101.654
lfingers 7.12502
lthumb 31.1978 -74.2901
rfemur -60.6917 -23.9786 -22.2772
rtibia 44.9365
rfoot -9.58281 -21.5257
rtoes -2.7038
lfemur -98.8659 41.3385 -32.2502
ltibia 80.7274
lfoot -15.563 7.53805
ltoes -23.6715
1164
root -6.46873 12.9928 9.64606 214.419 72.1196 -187.064
lowerback 44.034 -3.72086 2.63954
upperback 16.2407 -0.94893 -8.00559
thorax -2.79826 1.19671 -9.66661
lowerneck -0.999709 3.82304 4.08163
upperneck -20.2126 4.95655 -7.7893
head -5.59677 3.1514 -3.40884
rclavicle 9.93923e-015 1.38851e-013
rhumerus 51.6823 -2.11379 -44.4525
rradius 14.4578
rwrist 27.5063
rhand 29.1367 -17.3949
rfingers 7.12502
rthumb 52.9292 -36.9321
lclavicle 9.93923e-015 1.38851e-013
lhumerus 58.6474 -15.1003 70.7184
lradius 27.0527
lwrist 32.0958
lhand 5.9568 97.7259
lfingers 7.12502
lthumb 31.2822 -70.3786
rfemur -57.9391 -20.1201 -24.0359
rtibia 42.0168
rfoot -13.4359 -25.078
rtoes 8.84834
lfemur -99.502 42.2839 -33.6018
ltibia 82.2538
lfoot -17.166 6.8175
ltoes -23.1679
1165
root -6.5625 13.073 9.24317 215.448 71.4759 -185.86
lowerback 43.2757 -4.36241 4.58285
upperback 16.26 -1.03877 -7.85336
thorax -2.63227 1.21312 -10.4865
lowerneck -1.15204 3.95443 4.13921
upperneck -18.9687 5.22521 -7.12284
head -5.18911 3.17806 -3.167
rclavicle 8.98507e-014 7.06679e-014
rhumerus 50.7016 -1.63553 -41.6296
rradius 14.6039
rwrist 31.8284
rhand 34.5135 -15.498
rfingers 7.12502
rthumb 57.7125 -31.4746
lclavicle 8.98507e-014 7.06679e-014
lhumerus 59.8361 -18.3417 63.3523
lradius 26.9601
lwrist 33.6342
lhand 5.63939 92.8878
lfingers 7.12502
lthumb 30.9796 -65.4825
rfemur -55.7143 -18.5494 -24.789
rtibia 40.2562
rfoot -15.61 -27.6154
rtoes 14.5321
lfemur -100.241 41.3164 -34.8155
ltibia 83.6732
lfoot -18.4183 6.59134
ltoes -22.6747
1166
root -6.63983 13.1493 8.86976 216.466 71.2348 -184.472
lowerback 42.8467 -4.52057 5.57983
upperback 16.1847 -0.908331 -7.48552
thorax -2.56871 1.2767 -10.6546
lowerneck -1.68932 4.31833 4.35855
upperneck -17.2184 5.74575 -6.78759
head -4.53599 3.336 -3.03733
rclavicle -3.02153e-014 1.01579e-013
rhumerus 50.0864 -0.247915 -37.9904
rradius 15.0895
rwrist 34.1332
rhand 37.4566 -13.3954
rfingers 7.12502
rthumb 60.2555 -26.9047
lclavicle -3.02153e-014 1.01579e-013
lhumerus 61.0567 -20.9184 56.3926
lradius 26.8987
lwrist 31.1618
lhand 3.50413 270.958
lfingers 7.12502
lthumb 28.9422 -61.2682
rfemur -54.661 -17.6688 -24.4082
rtibia 39.8915
rfoot -15.4906 -28.1917
rtoes 15.785
lfemur -100.666 40.9011 -35.9852
ltibia 84.9565
lfoot -19.6668 6.41391
ltoes -22.5402
1167
root -6.71055 13.2126 8.51217 217.257 71.2499 -183.395
lowerback 42.4375 -4.32996 6.044
upperback 16.0353 -0.567843 -6.86868
thorax -2.52341 1.39329 -10.3436
lowerneck -2.4751 4.66561 4.35738
upperneck -14.7254 6.2711 -6.14401
head -4.07255 3.46999 -3.02751
rclavicle -6.59965e-014 1.88845e-015
rhumerus 49.7643 1.98807 -33.4046
rradius 16.2698
rwrist 31.08
rhand 38.0078 -12.0409
rfingers 7.12502
rthumb 60.7242 -25.0378
lclavicle -6.59965e-014 1.88845e-015
lhumerus 62.6447 -23.4394 49.0223
lradius 27.1548
lwrist 28.1454
lhand -0.0836353 272.838
lfingers 7.12502
lthumb 25.5103 -58.8495
rfemur -54.8612 -18.1597 -22.7916
rtibia 40.8831
rfoot -13.6643 -28.2365
rtoes 12.2725
lfemur -101.202 40.7104 -37.434
ltibia 86.1862
lfoot -20.6974 6.01059
ltoes -21.8644
1168
root -6.78089 13.268 8.16371 217.269 71.4535 -183.209
lowerback 41.9622 -4.01985 6.19887
upperback 15.8752 -0.206191 -6.25263
thorax -2.4686 1.5064 -9.87855
lowerneck -3.0829 4.88248 4.65739
upperneck -12.6677 6.5145 -6.02428
head -3.20711 3.51236 -2.9226
rclavicle 1.02573e-013 1.15394e-013
rhumerus 49.3373 4.86289 -27.9272
rradius 18.367
rwrist 24.2702
rhand 35.9892 -13.141
rfingers 7.12502
rthumb 58.9955 -27.9342
lclavicle 1.02573e-013 1.15394e-013
lhumerus 64.8005 -25.8732 40.6682
lradius 28.1177
lwrist 27.2533
lhand -4.2464 273.218
lfingers 7.12502
lthumb 21.5173 -57.9569
rfemur -56.0356 -19.8499 -20.4342
rtibia 43.1019
rfoot -12.1034 -27.6049
rtoes 10.5725
lfemur -101.744 40.4835 -39.2391
ltibia 87.3878
lfoot -21.5264 5.6553
ltoes -21.8804
1169
root -6.85139 13.3206 7.82209 216.671 71.861 -183.752
lowerback 41.4789 -3.79338 6.14229
upperback 15.7023 -0.0347849 -5.79357
thorax -2.47242 1.52543 -9.40609
lowerneck -3.56525 5.05283 4.71871
upperneck -10.822 6.7049 -5.84402
head -2.47981 3.5489 -2.77789
rclavicle 6.52014e-014 1.12711e-013
rhumerus 49.725 7.34253 -23.2885
rradius 20.5721
rwrist 17.9894
rhand 34.6862 -14.0795
rfingers 7.12502
rthumb 57.8634 -29.9228
lclavicle 6.52014e-014 1.12711e-013
lhumerus 67.3608 -27.9072 31.1706
lradius 30.5701
lwrist 32.7476
lhand -5.41752 273.997
lfingers 7.12502
lthumb 20.3922 -57.0536
rfemur -57.9962 -22.0302 -17.8151
rtibia 46.2907
rfoot -10.6025 -27.1297
rtoes 8.54149
lfemur -102.37 40.2512 -41.4091
ltibia 88.6385
lfoot -22.1513 5.31981
ltoes -22.3555
